<svg width="359" height="730" viewBox="0 0 359 730" fill="none" xmlns="http://www.w3.org/2000/svg">
<path d="M43.134 103.683L26.84 113.09L10.546 122.497V84.869L26.84 94.276L43.134 103.683Z" fill="#F2F2F2"/>
<path d="M26.6145 4.87283L31.4815 23.0492L36.3485 41.2257L-0.000106886 31.48L13.3072 18.1764L26.6145 4.87283Z" fill="#F2F2F2"/>
<path d="M306.155 49.602C314.815 49.602 321.835 42.5818 321.835 33.922C321.835 25.2622 314.815 18.242 306.155 18.242C297.495 18.242 290.475 25.2622 290.475 33.922C290.475 42.5818 297.495 49.602 306.155 49.602Z" fill="#F2F2F2"/>
<path d="M321.564 251.849L295.282 278.131L321.564 304.413L347.846 278.131L321.564 251.849Z" fill="#F2F2F2"/>
<path d="M120.797 313.987L130.423 349.891L166.327 340.264L156.701 304.36L120.797 313.987Z" fill="#F2F2F2"/>
<path d="M178.797 86.9867L188.423 122.891L224.327 113.264L214.701 77.3602L178.797 86.9867Z" fill="#F2F2F2"/>
<path d="M37.6145 384.873L42.4815 403.049L47.3485 421.226L10.9999 411.48L24.3072 398.176L37.6145 384.873Z" fill="#F2F2F2"/>
<path d="M317.155 429.602C325.815 429.602 332.835 422.582 332.835 413.922C332.835 405.262 325.815 398.242 317.155 398.242C308.495 398.242 301.475 405.262 301.475 413.922C301.475 422.582 308.495 429.602 317.155 429.602Z" fill="#F2F2F2"/>
<path d="M332.564 631.849L306.282 658.131L332.564 684.413L358.846 658.131L332.564 631.849Z" fill="#F2F2F2"/>
<path d="M131.797 693.987L141.423 729.891L177.327 720.264L167.701 684.36L131.797 693.987Z" fill="#F2F2F2"/>
<path d="M189.797 466.987L199.423 502.891L235.327 493.264L225.701 457.36L189.797 466.987Z" fill="#F2F2F2"/>
</svg>
